<svg xmlns="http://www.w3.org/2000/svg" xmlns:xlink="http://www.w3.org/1999/xlink" id="Layer_1" x="0" y="0" enable-background="new 0 0 64 64" version="1.1" viewBox="0 0 64 64" xml:space="preserve"><g><g><g><path fill="#EAEAEA" d="M32,0c17.7,0,32,14.3,32,32S49.7,64,32,64S0,49.7,0,32S14.3,0,32,0z"/></g></g><g><g><path fill="#D65330" d="M43,45.1l4.4,3.6C48,49.3,49,48.8,49,48c0-1.4,0-2.9,0-2.9h1c2.2,0,4-1.8,4-4v-13c0-2.2-1.8-4-4-4H30 c-2.2,0-4,1.8-4,4v13c0,2.2,1.8,4,4,4H43z"/></g></g><g><g><path fill="#F97850" d="M22,38l-4.4,3.6C17,42.2,16,41.7,16,40.9c0-1.4,0-2.9,0-2.9h-1c-2.2,0-4-1.8-4-4V21c0-2.2,1.8-4,4-4h20 c2.2,0,4,1.8,4,4v13c0,2.2-1.8,4-4,4H22z"/></g></g><g><g><circle cx="18" cy="27" r="2" fill="#FFF"/></g></g><g><g><circle cx="25" cy="27" r="2" fill="#FFF"/></g></g><g><g><circle cx="32" cy="27" r="2" fill="#FFF"/></g></g></g></svg>